G04 #@! TF.GenerationSoftware,KiCad,Pcbnew,(5.1.4)-1*
G04 #@! TF.CreationDate,2019-11-17T02:46:42+01:00*
G04 #@! TF.ProjectId,STM8_board,53544d38-5f62-46f6-9172-642e6b696361,1.0*
G04 #@! TF.SameCoordinates,Original*
G04 #@! TF.FileFunction,Soldermask,Bot*
G04 #@! TF.FilePolarity,Negative*
%FSLAX46Y46*%
G04 Gerber Fmt 4.6, Leading zero omitted, Abs format (unit mm)*
G04 Created by KiCad (PCBNEW (5.1.4)-1) date 2019-11-17 02:46:42*
%MOMM*%
%LPD*%
G04 APERTURE LIST*
%ADD10C,0.100000*%
G04 APERTURE END LIST*
D10*
G36*
X151049942Y-104769518D02*
G01*
X151116127Y-104776037D01*
X151285966Y-104827557D01*
X151442491Y-104911222D01*
X151478229Y-104940552D01*
X151579686Y-105023814D01*
X151662948Y-105125271D01*
X151692278Y-105161009D01*
X151775943Y-105317534D01*
X151827463Y-105487373D01*
X151844859Y-105664000D01*
X151827463Y-105840627D01*
X151775943Y-106010466D01*
X151692278Y-106166991D01*
X151662948Y-106202729D01*
X151579686Y-106304186D01*
X151478229Y-106387448D01*
X151442491Y-106416778D01*
X151285966Y-106500443D01*
X151116127Y-106551963D01*
X151049942Y-106558482D01*
X150983760Y-106565000D01*
X150895240Y-106565000D01*
X150829058Y-106558482D01*
X150762873Y-106551963D01*
X150593034Y-106500443D01*
X150436509Y-106416778D01*
X150400771Y-106387448D01*
X150299314Y-106304186D01*
X150216052Y-106202729D01*
X150186722Y-106166991D01*
X150103057Y-106010466D01*
X150051537Y-105840627D01*
X150034141Y-105664000D01*
X150051537Y-105487373D01*
X150103057Y-105317534D01*
X150186722Y-105161009D01*
X150216052Y-105125271D01*
X150299314Y-105023814D01*
X150400771Y-104940552D01*
X150436509Y-104911222D01*
X150593034Y-104827557D01*
X150762873Y-104776037D01*
X150829058Y-104769518D01*
X150895240Y-104763000D01*
X150983760Y-104763000D01*
X151049942Y-104769518D01*
X151049942Y-104769518D01*
G37*
G36*
X133269942Y-104769518D02*
G01*
X133336127Y-104776037D01*
X133505966Y-104827557D01*
X133662491Y-104911222D01*
X133698229Y-104940552D01*
X133799686Y-105023814D01*
X133882948Y-105125271D01*
X133912278Y-105161009D01*
X133995943Y-105317534D01*
X134047463Y-105487373D01*
X134064859Y-105664000D01*
X134047463Y-105840627D01*
X133995943Y-106010466D01*
X133912278Y-106166991D01*
X133882948Y-106202729D01*
X133799686Y-106304186D01*
X133698229Y-106387448D01*
X133662491Y-106416778D01*
X133505966Y-106500443D01*
X133336127Y-106551963D01*
X133269942Y-106558482D01*
X133203760Y-106565000D01*
X133115240Y-106565000D01*
X133049058Y-106558482D01*
X132982873Y-106551963D01*
X132813034Y-106500443D01*
X132656509Y-106416778D01*
X132620771Y-106387448D01*
X132519314Y-106304186D01*
X132436052Y-106202729D01*
X132406722Y-106166991D01*
X132323057Y-106010466D01*
X132271537Y-105840627D01*
X132254141Y-105664000D01*
X132271537Y-105487373D01*
X132323057Y-105317534D01*
X132406722Y-105161009D01*
X132436052Y-105125271D01*
X132519314Y-105023814D01*
X132620771Y-104940552D01*
X132656509Y-104911222D01*
X132813034Y-104827557D01*
X132982873Y-104776037D01*
X133049058Y-104769518D01*
X133115240Y-104763000D01*
X133203760Y-104763000D01*
X133269942Y-104769518D01*
X133269942Y-104769518D01*
G37*
G36*
X151049943Y-102229519D02*
G01*
X151116127Y-102236037D01*
X151285966Y-102287557D01*
X151442491Y-102371222D01*
X151478229Y-102400552D01*
X151579686Y-102483814D01*
X151662948Y-102585271D01*
X151692278Y-102621009D01*
X151775943Y-102777534D01*
X151827463Y-102947373D01*
X151844859Y-103124000D01*
X151827463Y-103300627D01*
X151775943Y-103470466D01*
X151692278Y-103626991D01*
X151662948Y-103662729D01*
X151579686Y-103764186D01*
X151478229Y-103847448D01*
X151442491Y-103876778D01*
X151285966Y-103960443D01*
X151116127Y-104011963D01*
X151049943Y-104018481D01*
X150983760Y-104025000D01*
X150895240Y-104025000D01*
X150829057Y-104018481D01*
X150762873Y-104011963D01*
X150593034Y-103960443D01*
X150436509Y-103876778D01*
X150400771Y-103847448D01*
X150299314Y-103764186D01*
X150216052Y-103662729D01*
X150186722Y-103626991D01*
X150103057Y-103470466D01*
X150051537Y-103300627D01*
X150034141Y-103124000D01*
X150051537Y-102947373D01*
X150103057Y-102777534D01*
X150186722Y-102621009D01*
X150216052Y-102585271D01*
X150299314Y-102483814D01*
X150400771Y-102400552D01*
X150436509Y-102371222D01*
X150593034Y-102287557D01*
X150762873Y-102236037D01*
X150829057Y-102229519D01*
X150895240Y-102223000D01*
X150983760Y-102223000D01*
X151049943Y-102229519D01*
X151049943Y-102229519D01*
G37*
G36*
X133269943Y-102229519D02*
G01*
X133336127Y-102236037D01*
X133505966Y-102287557D01*
X133662491Y-102371222D01*
X133698229Y-102400552D01*
X133799686Y-102483814D01*
X133882948Y-102585271D01*
X133912278Y-102621009D01*
X133995943Y-102777534D01*
X134047463Y-102947373D01*
X134064859Y-103124000D01*
X134047463Y-103300627D01*
X133995943Y-103470466D01*
X133912278Y-103626991D01*
X133882948Y-103662729D01*
X133799686Y-103764186D01*
X133698229Y-103847448D01*
X133662491Y-103876778D01*
X133505966Y-103960443D01*
X133336127Y-104011963D01*
X133269943Y-104018481D01*
X133203760Y-104025000D01*
X133115240Y-104025000D01*
X133049057Y-104018481D01*
X132982873Y-104011963D01*
X132813034Y-103960443D01*
X132656509Y-103876778D01*
X132620771Y-103847448D01*
X132519314Y-103764186D01*
X132436052Y-103662729D01*
X132406722Y-103626991D01*
X132323057Y-103470466D01*
X132271537Y-103300627D01*
X132254141Y-103124000D01*
X132271537Y-102947373D01*
X132323057Y-102777534D01*
X132406722Y-102621009D01*
X132436052Y-102585271D01*
X132519314Y-102483814D01*
X132620771Y-102400552D01*
X132656509Y-102371222D01*
X132813034Y-102287557D01*
X132982873Y-102236037D01*
X133049057Y-102229519D01*
X133115240Y-102223000D01*
X133203760Y-102223000D01*
X133269943Y-102229519D01*
X133269943Y-102229519D01*
G37*
G36*
X133269942Y-99689518D02*
G01*
X133336127Y-99696037D01*
X133505966Y-99747557D01*
X133662491Y-99831222D01*
X133698229Y-99860552D01*
X133799686Y-99943814D01*
X133882948Y-100045271D01*
X133912278Y-100081009D01*
X133995943Y-100237534D01*
X134047463Y-100407373D01*
X134064859Y-100584000D01*
X134047463Y-100760627D01*
X133995943Y-100930466D01*
X133912278Y-101086991D01*
X133882948Y-101122729D01*
X133799686Y-101224186D01*
X133698229Y-101307448D01*
X133662491Y-101336778D01*
X133505966Y-101420443D01*
X133336127Y-101471963D01*
X133269943Y-101478481D01*
X133203760Y-101485000D01*
X133115240Y-101485000D01*
X133049057Y-101478481D01*
X132982873Y-101471963D01*
X132813034Y-101420443D01*
X132656509Y-101336778D01*
X132620771Y-101307448D01*
X132519314Y-101224186D01*
X132436052Y-101122729D01*
X132406722Y-101086991D01*
X132323057Y-100930466D01*
X132271537Y-100760627D01*
X132254141Y-100584000D01*
X132271537Y-100407373D01*
X132323057Y-100237534D01*
X132406722Y-100081009D01*
X132436052Y-100045271D01*
X132519314Y-99943814D01*
X132620771Y-99860552D01*
X132656509Y-99831222D01*
X132813034Y-99747557D01*
X132982873Y-99696037D01*
X133049058Y-99689518D01*
X133115240Y-99683000D01*
X133203760Y-99683000D01*
X133269942Y-99689518D01*
X133269942Y-99689518D01*
G37*
G36*
X151049942Y-99689518D02*
G01*
X151116127Y-99696037D01*
X151285966Y-99747557D01*
X151442491Y-99831222D01*
X151478229Y-99860552D01*
X151579686Y-99943814D01*
X151662948Y-100045271D01*
X151692278Y-100081009D01*
X151775943Y-100237534D01*
X151827463Y-100407373D01*
X151844859Y-100584000D01*
X151827463Y-100760627D01*
X151775943Y-100930466D01*
X151692278Y-101086991D01*
X151662948Y-101122729D01*
X151579686Y-101224186D01*
X151478229Y-101307448D01*
X151442491Y-101336778D01*
X151285966Y-101420443D01*
X151116127Y-101471963D01*
X151049943Y-101478481D01*
X150983760Y-101485000D01*
X150895240Y-101485000D01*
X150829057Y-101478481D01*
X150762873Y-101471963D01*
X150593034Y-101420443D01*
X150436509Y-101336778D01*
X150400771Y-101307448D01*
X150299314Y-101224186D01*
X150216052Y-101122729D01*
X150186722Y-101086991D01*
X150103057Y-100930466D01*
X150051537Y-100760627D01*
X150034141Y-100584000D01*
X150051537Y-100407373D01*
X150103057Y-100237534D01*
X150186722Y-100081009D01*
X150216052Y-100045271D01*
X150299314Y-99943814D01*
X150400771Y-99860552D01*
X150436509Y-99831222D01*
X150593034Y-99747557D01*
X150762873Y-99696037D01*
X150829058Y-99689518D01*
X150895240Y-99683000D01*
X150983760Y-99683000D01*
X151049942Y-99689518D01*
X151049942Y-99689518D01*
G37*
G36*
X143493442Y-98673518D02*
G01*
X143559627Y-98680037D01*
X143729466Y-98731557D01*
X143885991Y-98815222D01*
X143921729Y-98844552D01*
X144023186Y-98927814D01*
X144106448Y-99029271D01*
X144135778Y-99065009D01*
X144219443Y-99221534D01*
X144270963Y-99391373D01*
X144288359Y-99568000D01*
X144270963Y-99744627D01*
X144219443Y-99914466D01*
X144135778Y-100070991D01*
X144106448Y-100106729D01*
X144023186Y-100208186D01*
X143921729Y-100291448D01*
X143885991Y-100320778D01*
X143729466Y-100404443D01*
X143559627Y-100455963D01*
X143493442Y-100462482D01*
X143427260Y-100469000D01*
X143338740Y-100469000D01*
X143272557Y-100462481D01*
X143206373Y-100455963D01*
X143036534Y-100404443D01*
X142880009Y-100320778D01*
X142844271Y-100291448D01*
X142742814Y-100208186D01*
X142659552Y-100106729D01*
X142630222Y-100070991D01*
X142546557Y-99914466D01*
X142495037Y-99744627D01*
X142477641Y-99568000D01*
X142495037Y-99391373D01*
X142546557Y-99221534D01*
X142630222Y-99065009D01*
X142659552Y-99029271D01*
X142742814Y-98927814D01*
X142844271Y-98844552D01*
X142880009Y-98815222D01*
X143036534Y-98731557D01*
X143206373Y-98680037D01*
X143272558Y-98673518D01*
X143338740Y-98667000D01*
X143427260Y-98667000D01*
X143493442Y-98673518D01*
X143493442Y-98673518D01*
G37*
G36*
X141744000Y-100469000D02*
G01*
X139942000Y-100469000D01*
X139942000Y-98667000D01*
X141744000Y-98667000D01*
X141744000Y-100469000D01*
X141744000Y-100469000D01*
G37*
G36*
X151049943Y-97149519D02*
G01*
X151116127Y-97156037D01*
X151285966Y-97207557D01*
X151442491Y-97291222D01*
X151478229Y-97320552D01*
X151579686Y-97403814D01*
X151662948Y-97505271D01*
X151692278Y-97541009D01*
X151775943Y-97697534D01*
X151827463Y-97867373D01*
X151844859Y-98044000D01*
X151827463Y-98220627D01*
X151775943Y-98390466D01*
X151692278Y-98546991D01*
X151662948Y-98582729D01*
X151579686Y-98684186D01*
X151478229Y-98767448D01*
X151442491Y-98796778D01*
X151285966Y-98880443D01*
X151116127Y-98931963D01*
X151049943Y-98938481D01*
X150983760Y-98945000D01*
X150895240Y-98945000D01*
X150829058Y-98938482D01*
X150762873Y-98931963D01*
X150593034Y-98880443D01*
X150436509Y-98796778D01*
X150400771Y-98767448D01*
X150299314Y-98684186D01*
X150216052Y-98582729D01*
X150186722Y-98546991D01*
X150103057Y-98390466D01*
X150051537Y-98220627D01*
X150034141Y-98044000D01*
X150051537Y-97867373D01*
X150103057Y-97697534D01*
X150186722Y-97541009D01*
X150216052Y-97505271D01*
X150299314Y-97403814D01*
X150400771Y-97320552D01*
X150436509Y-97291222D01*
X150593034Y-97207557D01*
X150762873Y-97156037D01*
X150829058Y-97149518D01*
X150895240Y-97143000D01*
X150983760Y-97143000D01*
X151049943Y-97149519D01*
X151049943Y-97149519D01*
G37*
G36*
X133269943Y-97149519D02*
G01*
X133336127Y-97156037D01*
X133505966Y-97207557D01*
X133662491Y-97291222D01*
X133698229Y-97320552D01*
X133799686Y-97403814D01*
X133882948Y-97505271D01*
X133912278Y-97541009D01*
X133995943Y-97697534D01*
X134047463Y-97867373D01*
X134064859Y-98044000D01*
X134047463Y-98220627D01*
X133995943Y-98390466D01*
X133912278Y-98546991D01*
X133882948Y-98582729D01*
X133799686Y-98684186D01*
X133698229Y-98767448D01*
X133662491Y-98796778D01*
X133505966Y-98880443D01*
X133336127Y-98931963D01*
X133269943Y-98938481D01*
X133203760Y-98945000D01*
X133115240Y-98945000D01*
X133049058Y-98938482D01*
X132982873Y-98931963D01*
X132813034Y-98880443D01*
X132656509Y-98796778D01*
X132620771Y-98767448D01*
X132519314Y-98684186D01*
X132436052Y-98582729D01*
X132406722Y-98546991D01*
X132323057Y-98390466D01*
X132271537Y-98220627D01*
X132254141Y-98044000D01*
X132271537Y-97867373D01*
X132323057Y-97697534D01*
X132406722Y-97541009D01*
X132436052Y-97505271D01*
X132519314Y-97403814D01*
X132620771Y-97320552D01*
X132656509Y-97291222D01*
X132813034Y-97207557D01*
X132982873Y-97156037D01*
X133049058Y-97149518D01*
X133115240Y-97143000D01*
X133203760Y-97143000D01*
X133269943Y-97149519D01*
X133269943Y-97149519D01*
G37*
G36*
X133269942Y-94609518D02*
G01*
X133336127Y-94616037D01*
X133505966Y-94667557D01*
X133662491Y-94751222D01*
X133698229Y-94780552D01*
X133799686Y-94863814D01*
X133882948Y-94965271D01*
X133912278Y-95001009D01*
X133995943Y-95157534D01*
X134047463Y-95327373D01*
X134064859Y-95504000D01*
X134047463Y-95680627D01*
X133995943Y-95850466D01*
X133912278Y-96006991D01*
X133882948Y-96042729D01*
X133799686Y-96144186D01*
X133698229Y-96227448D01*
X133662491Y-96256778D01*
X133505966Y-96340443D01*
X133336127Y-96391963D01*
X133269942Y-96398482D01*
X133203760Y-96405000D01*
X133115240Y-96405000D01*
X133049058Y-96398482D01*
X132982873Y-96391963D01*
X132813034Y-96340443D01*
X132656509Y-96256778D01*
X132620771Y-96227448D01*
X132519314Y-96144186D01*
X132436052Y-96042729D01*
X132406722Y-96006991D01*
X132323057Y-95850466D01*
X132271537Y-95680627D01*
X132254141Y-95504000D01*
X132271537Y-95327373D01*
X132323057Y-95157534D01*
X132406722Y-95001009D01*
X132436052Y-94965271D01*
X132519314Y-94863814D01*
X132620771Y-94780552D01*
X132656509Y-94751222D01*
X132813034Y-94667557D01*
X132982873Y-94616037D01*
X133049058Y-94609518D01*
X133115240Y-94603000D01*
X133203760Y-94603000D01*
X133269942Y-94609518D01*
X133269942Y-94609518D01*
G37*
G36*
X151049942Y-94609518D02*
G01*
X151116127Y-94616037D01*
X151285966Y-94667557D01*
X151442491Y-94751222D01*
X151478229Y-94780552D01*
X151579686Y-94863814D01*
X151662948Y-94965271D01*
X151692278Y-95001009D01*
X151775943Y-95157534D01*
X151827463Y-95327373D01*
X151844859Y-95504000D01*
X151827463Y-95680627D01*
X151775943Y-95850466D01*
X151692278Y-96006991D01*
X151662948Y-96042729D01*
X151579686Y-96144186D01*
X151478229Y-96227448D01*
X151442491Y-96256778D01*
X151285966Y-96340443D01*
X151116127Y-96391963D01*
X151049942Y-96398482D01*
X150983760Y-96405000D01*
X150895240Y-96405000D01*
X150829058Y-96398482D01*
X150762873Y-96391963D01*
X150593034Y-96340443D01*
X150436509Y-96256778D01*
X150400771Y-96227448D01*
X150299314Y-96144186D01*
X150216052Y-96042729D01*
X150186722Y-96006991D01*
X150103057Y-95850466D01*
X150051537Y-95680627D01*
X150034141Y-95504000D01*
X150051537Y-95327373D01*
X150103057Y-95157534D01*
X150186722Y-95001009D01*
X150216052Y-94965271D01*
X150299314Y-94863814D01*
X150400771Y-94780552D01*
X150436509Y-94751222D01*
X150593034Y-94667557D01*
X150762873Y-94616037D01*
X150829058Y-94609518D01*
X150895240Y-94603000D01*
X150983760Y-94603000D01*
X151049942Y-94609518D01*
X151049942Y-94609518D01*
G37*
G36*
X133269943Y-92069519D02*
G01*
X133336127Y-92076037D01*
X133505966Y-92127557D01*
X133662491Y-92211222D01*
X133698229Y-92240552D01*
X133799686Y-92323814D01*
X133882948Y-92425271D01*
X133912278Y-92461009D01*
X133995943Y-92617534D01*
X134047463Y-92787373D01*
X134064859Y-92964000D01*
X134047463Y-93140627D01*
X133995943Y-93310466D01*
X133912278Y-93466991D01*
X133882948Y-93502729D01*
X133799686Y-93604186D01*
X133698229Y-93687448D01*
X133662491Y-93716778D01*
X133505966Y-93800443D01*
X133336127Y-93851963D01*
X133269943Y-93858481D01*
X133203760Y-93865000D01*
X133115240Y-93865000D01*
X133049057Y-93858481D01*
X132982873Y-93851963D01*
X132813034Y-93800443D01*
X132656509Y-93716778D01*
X132620771Y-93687448D01*
X132519314Y-93604186D01*
X132436052Y-93502729D01*
X132406722Y-93466991D01*
X132323057Y-93310466D01*
X132271537Y-93140627D01*
X132254141Y-92964000D01*
X132271537Y-92787373D01*
X132323057Y-92617534D01*
X132406722Y-92461009D01*
X132436052Y-92425271D01*
X132519314Y-92323814D01*
X132620771Y-92240552D01*
X132656509Y-92211222D01*
X132813034Y-92127557D01*
X132982873Y-92076037D01*
X133049057Y-92069519D01*
X133115240Y-92063000D01*
X133203760Y-92063000D01*
X133269943Y-92069519D01*
X133269943Y-92069519D01*
G37*
G36*
X151049943Y-92069519D02*
G01*
X151116127Y-92076037D01*
X151285966Y-92127557D01*
X151442491Y-92211222D01*
X151478229Y-92240552D01*
X151579686Y-92323814D01*
X151662948Y-92425271D01*
X151692278Y-92461009D01*
X151775943Y-92617534D01*
X151827463Y-92787373D01*
X151844859Y-92964000D01*
X151827463Y-93140627D01*
X151775943Y-93310466D01*
X151692278Y-93466991D01*
X151662948Y-93502729D01*
X151579686Y-93604186D01*
X151478229Y-93687448D01*
X151442491Y-93716778D01*
X151285966Y-93800443D01*
X151116127Y-93851963D01*
X151049943Y-93858481D01*
X150983760Y-93865000D01*
X150895240Y-93865000D01*
X150829057Y-93858481D01*
X150762873Y-93851963D01*
X150593034Y-93800443D01*
X150436509Y-93716778D01*
X150400771Y-93687448D01*
X150299314Y-93604186D01*
X150216052Y-93502729D01*
X150186722Y-93466991D01*
X150103057Y-93310466D01*
X150051537Y-93140627D01*
X150034141Y-92964000D01*
X150051537Y-92787373D01*
X150103057Y-92617534D01*
X150186722Y-92461009D01*
X150216052Y-92425271D01*
X150299314Y-92323814D01*
X150400771Y-92240552D01*
X150436509Y-92211222D01*
X150593034Y-92127557D01*
X150762873Y-92076037D01*
X150829057Y-92069519D01*
X150895240Y-92063000D01*
X150983760Y-92063000D01*
X151049943Y-92069519D01*
X151049943Y-92069519D01*
G37*
G36*
X133269942Y-89529518D02*
G01*
X133336127Y-89536037D01*
X133505966Y-89587557D01*
X133662491Y-89671222D01*
X133698229Y-89700552D01*
X133799686Y-89783814D01*
X133882948Y-89885271D01*
X133912278Y-89921009D01*
X133995943Y-90077534D01*
X134047463Y-90247373D01*
X134064859Y-90424000D01*
X134047463Y-90600627D01*
X133995943Y-90770466D01*
X133912278Y-90926991D01*
X133882948Y-90962729D01*
X133799686Y-91064186D01*
X133698229Y-91147448D01*
X133662491Y-91176778D01*
X133505966Y-91260443D01*
X133336127Y-91311963D01*
X133269943Y-91318481D01*
X133203760Y-91325000D01*
X133115240Y-91325000D01*
X133049057Y-91318481D01*
X132982873Y-91311963D01*
X132813034Y-91260443D01*
X132656509Y-91176778D01*
X132620771Y-91147448D01*
X132519314Y-91064186D01*
X132436052Y-90962729D01*
X132406722Y-90926991D01*
X132323057Y-90770466D01*
X132271537Y-90600627D01*
X132254141Y-90424000D01*
X132271537Y-90247373D01*
X132323057Y-90077534D01*
X132406722Y-89921009D01*
X132436052Y-89885271D01*
X132519314Y-89783814D01*
X132620771Y-89700552D01*
X132656509Y-89671222D01*
X132813034Y-89587557D01*
X132982873Y-89536037D01*
X133049058Y-89529518D01*
X133115240Y-89523000D01*
X133203760Y-89523000D01*
X133269942Y-89529518D01*
X133269942Y-89529518D01*
G37*
G36*
X151049942Y-89529518D02*
G01*
X151116127Y-89536037D01*
X151285966Y-89587557D01*
X151442491Y-89671222D01*
X151478229Y-89700552D01*
X151579686Y-89783814D01*
X151662948Y-89885271D01*
X151692278Y-89921009D01*
X151775943Y-90077534D01*
X151827463Y-90247373D01*
X151844859Y-90424000D01*
X151827463Y-90600627D01*
X151775943Y-90770466D01*
X151692278Y-90926991D01*
X151662948Y-90962729D01*
X151579686Y-91064186D01*
X151478229Y-91147448D01*
X151442491Y-91176778D01*
X151285966Y-91260443D01*
X151116127Y-91311963D01*
X151049942Y-91318482D01*
X150983760Y-91325000D01*
X150895240Y-91325000D01*
X150829057Y-91318481D01*
X150762873Y-91311963D01*
X150593034Y-91260443D01*
X150436509Y-91176778D01*
X150400771Y-91147448D01*
X150299314Y-91064186D01*
X150216052Y-90962729D01*
X150186722Y-90926991D01*
X150103057Y-90770466D01*
X150051537Y-90600627D01*
X150034141Y-90424000D01*
X150051537Y-90247373D01*
X150103057Y-90077534D01*
X150186722Y-89921009D01*
X150216052Y-89885271D01*
X150299314Y-89783814D01*
X150400771Y-89700552D01*
X150436509Y-89671222D01*
X150593034Y-89587557D01*
X150762873Y-89536037D01*
X150829058Y-89529518D01*
X150895240Y-89523000D01*
X150983760Y-89523000D01*
X151049942Y-89529518D01*
X151049942Y-89529518D01*
G37*
G36*
X151049943Y-86989519D02*
G01*
X151116127Y-86996037D01*
X151285966Y-87047557D01*
X151442491Y-87131222D01*
X151478229Y-87160552D01*
X151579686Y-87243814D01*
X151662948Y-87345271D01*
X151692278Y-87381009D01*
X151775943Y-87537534D01*
X151827463Y-87707373D01*
X151844859Y-87884000D01*
X151827463Y-88060627D01*
X151775943Y-88230466D01*
X151692278Y-88386991D01*
X151662948Y-88422729D01*
X151579686Y-88524186D01*
X151478229Y-88607448D01*
X151442491Y-88636778D01*
X151285966Y-88720443D01*
X151116127Y-88771963D01*
X151049942Y-88778482D01*
X150983760Y-88785000D01*
X150895240Y-88785000D01*
X150829058Y-88778482D01*
X150762873Y-88771963D01*
X150593034Y-88720443D01*
X150436509Y-88636778D01*
X150400771Y-88607448D01*
X150299314Y-88524186D01*
X150216052Y-88422729D01*
X150186722Y-88386991D01*
X150103057Y-88230466D01*
X150051537Y-88060627D01*
X150034141Y-87884000D01*
X150051537Y-87707373D01*
X150103057Y-87537534D01*
X150186722Y-87381009D01*
X150216052Y-87345271D01*
X150299314Y-87243814D01*
X150400771Y-87160552D01*
X150436509Y-87131222D01*
X150593034Y-87047557D01*
X150762873Y-86996037D01*
X150829057Y-86989519D01*
X150895240Y-86983000D01*
X150983760Y-86983000D01*
X151049943Y-86989519D01*
X151049943Y-86989519D01*
G37*
G36*
X133269943Y-86989519D02*
G01*
X133336127Y-86996037D01*
X133505966Y-87047557D01*
X133662491Y-87131222D01*
X133698229Y-87160552D01*
X133799686Y-87243814D01*
X133882948Y-87345271D01*
X133912278Y-87381009D01*
X133995943Y-87537534D01*
X134047463Y-87707373D01*
X134064859Y-87884000D01*
X134047463Y-88060627D01*
X133995943Y-88230466D01*
X133912278Y-88386991D01*
X133882948Y-88422729D01*
X133799686Y-88524186D01*
X133698229Y-88607448D01*
X133662491Y-88636778D01*
X133505966Y-88720443D01*
X133336127Y-88771963D01*
X133269942Y-88778482D01*
X133203760Y-88785000D01*
X133115240Y-88785000D01*
X133049058Y-88778482D01*
X132982873Y-88771963D01*
X132813034Y-88720443D01*
X132656509Y-88636778D01*
X132620771Y-88607448D01*
X132519314Y-88524186D01*
X132436052Y-88422729D01*
X132406722Y-88386991D01*
X132323057Y-88230466D01*
X132271537Y-88060627D01*
X132254141Y-87884000D01*
X132271537Y-87707373D01*
X132323057Y-87537534D01*
X132406722Y-87381009D01*
X132436052Y-87345271D01*
X132519314Y-87243814D01*
X132620771Y-87160552D01*
X132656509Y-87131222D01*
X132813034Y-87047557D01*
X132982873Y-86996037D01*
X133049057Y-86989519D01*
X133115240Y-86983000D01*
X133203760Y-86983000D01*
X133269943Y-86989519D01*
X133269943Y-86989519D01*
G37*
G36*
X133269942Y-84449518D02*
G01*
X133336127Y-84456037D01*
X133505966Y-84507557D01*
X133662491Y-84591222D01*
X133698229Y-84620552D01*
X133799686Y-84703814D01*
X133882948Y-84805271D01*
X133912278Y-84841009D01*
X133995943Y-84997534D01*
X134047463Y-85167373D01*
X134064859Y-85344000D01*
X134047463Y-85520627D01*
X133995943Y-85690466D01*
X133912278Y-85846991D01*
X133882948Y-85882729D01*
X133799686Y-85984186D01*
X133698229Y-86067448D01*
X133662491Y-86096778D01*
X133505966Y-86180443D01*
X133336127Y-86231963D01*
X133269942Y-86238482D01*
X133203760Y-86245000D01*
X133115240Y-86245000D01*
X133049058Y-86238482D01*
X132982873Y-86231963D01*
X132813034Y-86180443D01*
X132656509Y-86096778D01*
X132620771Y-86067448D01*
X132519314Y-85984186D01*
X132436052Y-85882729D01*
X132406722Y-85846991D01*
X132323057Y-85690466D01*
X132271537Y-85520627D01*
X132254141Y-85344000D01*
X132271537Y-85167373D01*
X132323057Y-84997534D01*
X132406722Y-84841009D01*
X132436052Y-84805271D01*
X132519314Y-84703814D01*
X132620771Y-84620552D01*
X132656509Y-84591222D01*
X132813034Y-84507557D01*
X132982873Y-84456037D01*
X133049058Y-84449518D01*
X133115240Y-84443000D01*
X133203760Y-84443000D01*
X133269942Y-84449518D01*
X133269942Y-84449518D01*
G37*
G36*
X151049942Y-84449518D02*
G01*
X151116127Y-84456037D01*
X151285966Y-84507557D01*
X151442491Y-84591222D01*
X151478229Y-84620552D01*
X151579686Y-84703814D01*
X151662948Y-84805271D01*
X151692278Y-84841009D01*
X151775943Y-84997534D01*
X151827463Y-85167373D01*
X151844859Y-85344000D01*
X151827463Y-85520627D01*
X151775943Y-85690466D01*
X151692278Y-85846991D01*
X151662948Y-85882729D01*
X151579686Y-85984186D01*
X151478229Y-86067448D01*
X151442491Y-86096778D01*
X151285966Y-86180443D01*
X151116127Y-86231963D01*
X151049942Y-86238482D01*
X150983760Y-86245000D01*
X150895240Y-86245000D01*
X150829058Y-86238482D01*
X150762873Y-86231963D01*
X150593034Y-86180443D01*
X150436509Y-86096778D01*
X150400771Y-86067448D01*
X150299314Y-85984186D01*
X150216052Y-85882729D01*
X150186722Y-85846991D01*
X150103057Y-85690466D01*
X150051537Y-85520627D01*
X150034141Y-85344000D01*
X150051537Y-85167373D01*
X150103057Y-84997534D01*
X150186722Y-84841009D01*
X150216052Y-84805271D01*
X150299314Y-84703814D01*
X150400771Y-84620552D01*
X150436509Y-84591222D01*
X150593034Y-84507557D01*
X150762873Y-84456037D01*
X150829058Y-84449518D01*
X150895240Y-84443000D01*
X150983760Y-84443000D01*
X151049942Y-84449518D01*
X151049942Y-84449518D01*
G37*
G36*
X134060500Y-83705000D02*
G01*
X132258500Y-83705000D01*
X132258500Y-81903000D01*
X134060500Y-81903000D01*
X134060500Y-83705000D01*
X134060500Y-83705000D01*
G37*
G36*
X151840500Y-83705000D02*
G01*
X150038500Y-83705000D01*
X150038500Y-81903000D01*
X151840500Y-81903000D01*
X151840500Y-83705000D01*
X151840500Y-83705000D01*
G37*
G36*
X139204000Y-83451000D02*
G01*
X137402000Y-83451000D01*
X137402000Y-81649000D01*
X139204000Y-81649000D01*
X139204000Y-83451000D01*
X139204000Y-83451000D01*
G37*
G36*
X140953443Y-81655519D02*
G01*
X141019627Y-81662037D01*
X141189466Y-81713557D01*
X141345991Y-81797222D01*
X141381729Y-81826552D01*
X141483186Y-81909814D01*
X141566448Y-82011271D01*
X141595778Y-82047009D01*
X141679443Y-82203534D01*
X141730963Y-82373373D01*
X141748359Y-82550000D01*
X141730963Y-82726627D01*
X141679443Y-82896466D01*
X141595778Y-83052991D01*
X141566448Y-83088729D01*
X141483186Y-83190186D01*
X141381729Y-83273448D01*
X141345991Y-83302778D01*
X141189466Y-83386443D01*
X141019627Y-83437963D01*
X140953443Y-83444481D01*
X140887260Y-83451000D01*
X140798740Y-83451000D01*
X140732557Y-83444481D01*
X140666373Y-83437963D01*
X140496534Y-83386443D01*
X140340009Y-83302778D01*
X140304271Y-83273448D01*
X140202814Y-83190186D01*
X140119552Y-83088729D01*
X140090222Y-83052991D01*
X140006557Y-82896466D01*
X139955037Y-82726627D01*
X139937641Y-82550000D01*
X139955037Y-82373373D01*
X140006557Y-82203534D01*
X140090222Y-82047009D01*
X140119552Y-82011271D01*
X140202814Y-81909814D01*
X140304271Y-81826552D01*
X140340009Y-81797222D01*
X140496534Y-81713557D01*
X140666373Y-81662037D01*
X140732557Y-81655519D01*
X140798740Y-81649000D01*
X140887260Y-81649000D01*
X140953443Y-81655519D01*
X140953443Y-81655519D01*
G37*
G36*
X143493443Y-81655519D02*
G01*
X143559627Y-81662037D01*
X143729466Y-81713557D01*
X143885991Y-81797222D01*
X143921729Y-81826552D01*
X144023186Y-81909814D01*
X144106448Y-82011271D01*
X144135778Y-82047009D01*
X144219443Y-82203534D01*
X144270963Y-82373373D01*
X144288359Y-82550000D01*
X144270963Y-82726627D01*
X144219443Y-82896466D01*
X144135778Y-83052991D01*
X144106448Y-83088729D01*
X144023186Y-83190186D01*
X143921729Y-83273448D01*
X143885991Y-83302778D01*
X143729466Y-83386443D01*
X143559627Y-83437963D01*
X143493443Y-83444481D01*
X143427260Y-83451000D01*
X143338740Y-83451000D01*
X143272557Y-83444481D01*
X143206373Y-83437963D01*
X143036534Y-83386443D01*
X142880009Y-83302778D01*
X142844271Y-83273448D01*
X142742814Y-83190186D01*
X142659552Y-83088729D01*
X142630222Y-83052991D01*
X142546557Y-82896466D01*
X142495037Y-82726627D01*
X142477641Y-82550000D01*
X142495037Y-82373373D01*
X142546557Y-82203534D01*
X142630222Y-82047009D01*
X142659552Y-82011271D01*
X142742814Y-81909814D01*
X142844271Y-81826552D01*
X142880009Y-81797222D01*
X143036534Y-81713557D01*
X143206373Y-81662037D01*
X143272557Y-81655519D01*
X143338740Y-81649000D01*
X143427260Y-81649000D01*
X143493443Y-81655519D01*
X143493443Y-81655519D01*
G37*
G36*
X146033443Y-81655519D02*
G01*
X146099627Y-81662037D01*
X146269466Y-81713557D01*
X146425991Y-81797222D01*
X146461729Y-81826552D01*
X146563186Y-81909814D01*
X146646448Y-82011271D01*
X146675778Y-82047009D01*
X146759443Y-82203534D01*
X146810963Y-82373373D01*
X146828359Y-82550000D01*
X146810963Y-82726627D01*
X146759443Y-82896466D01*
X146675778Y-83052991D01*
X146646448Y-83088729D01*
X146563186Y-83190186D01*
X146461729Y-83273448D01*
X146425991Y-83302778D01*
X146269466Y-83386443D01*
X146099627Y-83437963D01*
X146033443Y-83444481D01*
X145967260Y-83451000D01*
X145878740Y-83451000D01*
X145812557Y-83444481D01*
X145746373Y-83437963D01*
X145576534Y-83386443D01*
X145420009Y-83302778D01*
X145384271Y-83273448D01*
X145282814Y-83190186D01*
X145199552Y-83088729D01*
X145170222Y-83052991D01*
X145086557Y-82896466D01*
X145035037Y-82726627D01*
X145017641Y-82550000D01*
X145035037Y-82373373D01*
X145086557Y-82203534D01*
X145170222Y-82047009D01*
X145199552Y-82011271D01*
X145282814Y-81909814D01*
X145384271Y-81826552D01*
X145420009Y-81797222D01*
X145576534Y-81713557D01*
X145746373Y-81662037D01*
X145812557Y-81655519D01*
X145878740Y-81649000D01*
X145967260Y-81649000D01*
X146033443Y-81655519D01*
X146033443Y-81655519D01*
G37*
M02*
