M48
; DRILL file {KiCad (5.1.4)-1} date 17/11/2019 02:46:50
; FORMAT={3:3/ absolute / metric / suppress leading zeros}
; #@! TF.CreationDate,2019-11-17T02:46:50+01:00
; #@! TF.GenerationSoftware,Kicad,Pcbnew,(5.1.4)-1
; #@! TF.FileFunction,Plated,1,2,PTH
FMAT,2
METRIC,TZ
T1C0.300
T2C1.000
%
G90
G05
T1
X140233Y-92862
X140758Y-92329
X141351Y-91694
X141935Y-90411
X143065Y-90424
X143908Y-96901
X146177Y-101219
T2
X140843Y-99568
X143383Y-99568
X133159Y-82804
X133159Y-85344
X133159Y-87884
X133159Y-90424
X133159Y-92964
X133159Y-95504
X133159Y-98044
X133159Y-100584
X133159Y-103124
X133159Y-105664
X138303Y-82550
X140843Y-82550
X143383Y-82550
X145923Y-82550
X150939Y-82804
X150939Y-85344
X150939Y-87884
X150939Y-90424
X150939Y-92964
X150939Y-95504
X150939Y-98044
X150939Y-100584
X150939Y-103124
X150939Y-105664
T0
M30
