G04 #@! TF.GenerationSoftware,KiCad,Pcbnew,(5.1.4)-1*
G04 #@! TF.CreationDate,2019-11-17T02:46:42+01:00*
G04 #@! TF.ProjectId,STM8_board,53544d38-5f62-46f6-9172-642e6b696361,1.0*
G04 #@! TF.SameCoordinates,Original*
G04 #@! TF.FileFunction,Copper,L2,Bot*
G04 #@! TF.FilePolarity,Positive*
%FSLAX46Y46*%
G04 Gerber Fmt 4.6, Leading zero omitted, Abs format (unit mm)*
G04 Created by KiCad (PCBNEW (5.1.4)-1) date 2019-11-17 02:46:42*
%MOMM*%
%LPD*%
G04 APERTURE LIST*
%ADD10O,1.700000X1.700000*%
%ADD11R,1.700000X1.700000*%
%ADD12C,0.400000*%
%ADD13C,0.250000*%
%ADD14C,0.254000*%
G04 APERTURE END LIST*
D10*
X145923000Y-82550000D03*
X143383000Y-82550000D03*
X140843000Y-82550000D03*
D11*
X138303000Y-82550000D03*
D10*
X143383000Y-99568000D03*
D11*
X140843000Y-99568000D03*
D10*
X150939500Y-105664000D03*
X150939500Y-103124000D03*
X150939500Y-100584000D03*
X150939500Y-98044000D03*
X150939500Y-95504000D03*
X150939500Y-92964000D03*
X150939500Y-90424000D03*
X150939500Y-87884000D03*
X150939500Y-85344000D03*
D11*
X150939500Y-82804000D03*
D10*
X133159500Y-105664000D03*
X133159500Y-103124000D03*
X133159500Y-100584000D03*
X133159500Y-98044000D03*
X133159500Y-95504000D03*
X133159500Y-92964000D03*
X133159500Y-90424000D03*
X133159500Y-87884000D03*
X133159500Y-85344000D03*
D11*
X133159500Y-82804000D03*
D12*
X143065500Y-90424000D03*
X141935490Y-90411010D03*
X140232768Y-92861768D03*
X146177000Y-101219000D03*
X143908000Y-96901000D03*
X141351000Y-91694000D03*
X140757768Y-92329000D03*
D13*
X141948480Y-90424000D02*
X141935490Y-90411010D01*
X143065500Y-90424000D02*
X141948480Y-90424000D01*
X140232768Y-84479768D02*
X138303000Y-82550000D01*
X140232768Y-92861768D02*
X140232768Y-84479768D01*
X142043989Y-94672989D02*
X140432767Y-93061767D01*
X140432767Y-93061767D02*
X140232768Y-92861768D01*
X142043989Y-99967991D02*
X142043989Y-94672989D01*
X143294998Y-101219000D02*
X142043989Y-99967991D01*
X146177000Y-101219000D02*
X143294998Y-101219000D01*
X143256000Y-96901000D02*
X143908000Y-96901000D01*
X143002000Y-96647000D02*
X143256000Y-96901000D01*
X143002000Y-94234000D02*
X143002000Y-96647000D01*
X141351000Y-91694000D02*
X141351000Y-92583000D01*
X141351000Y-92583000D02*
X143002000Y-94234000D01*
X144653000Y-81280000D02*
X151732751Y-81280000D01*
X143383000Y-82550000D02*
X144653000Y-81280000D01*
X151732751Y-81280000D02*
X152400000Y-81947249D01*
X152400000Y-81947249D02*
X152400000Y-86423500D01*
X152400000Y-86423500D02*
X150939500Y-87884000D01*
X142494000Y-98679000D02*
X143383000Y-99568000D01*
X142494000Y-94362410D02*
X142494000Y-98679000D01*
X140757768Y-92329000D02*
X140757768Y-92626178D01*
X140757768Y-92626178D02*
X142494000Y-94362410D01*
D14*
G36*
X136863498Y-81455820D02*
G01*
X136827188Y-81575518D01*
X136814928Y-81700000D01*
X136814928Y-83400000D01*
X136827188Y-83524482D01*
X136863498Y-83644180D01*
X136922463Y-83754494D01*
X137001815Y-83851185D01*
X137098506Y-83930537D01*
X137208820Y-83989502D01*
X137328518Y-84025812D01*
X137453000Y-84038072D01*
X138716271Y-84038072D01*
X139472769Y-84794571D01*
X139472768Y-92514611D01*
X139429857Y-92618208D01*
X139397768Y-92779528D01*
X139397768Y-92944008D01*
X139429857Y-93105328D01*
X139492801Y-93257289D01*
X139584181Y-93394049D01*
X139700487Y-93510355D01*
X139837247Y-93601735D01*
X139940846Y-93644647D01*
X141283990Y-94987792D01*
X141283989Y-98079928D01*
X139993000Y-98079928D01*
X139868518Y-98092188D01*
X139748820Y-98128498D01*
X139638506Y-98187463D01*
X139541815Y-98266815D01*
X139462463Y-98363506D01*
X139403498Y-98473820D01*
X139367188Y-98593518D01*
X139354928Y-98718000D01*
X139354928Y-100418000D01*
X139367188Y-100542482D01*
X139403498Y-100662180D01*
X139462463Y-100772494D01*
X139541815Y-100869185D01*
X139638506Y-100948537D01*
X139748820Y-101007502D01*
X139868518Y-101043812D01*
X139993000Y-101056072D01*
X141693000Y-101056072D01*
X141817482Y-101043812D01*
X141937180Y-101007502D01*
X141983787Y-100982590D01*
X142731199Y-101730003D01*
X142754997Y-101759001D01*
X142783995Y-101782799D01*
X142870721Y-101853974D01*
X143002751Y-101924546D01*
X143146012Y-101968003D01*
X143257665Y-101979000D01*
X143257675Y-101979000D01*
X143294998Y-101982676D01*
X143332321Y-101979000D01*
X145829843Y-101979000D01*
X145933440Y-102021911D01*
X146094760Y-102054000D01*
X146259240Y-102054000D01*
X146420560Y-102021911D01*
X146572521Y-101958967D01*
X146709281Y-101867587D01*
X146825587Y-101751281D01*
X146916967Y-101614521D01*
X146979911Y-101462560D01*
X147012000Y-101301240D01*
X147012000Y-101136760D01*
X146979911Y-100975440D01*
X146916967Y-100823479D01*
X146825587Y-100686719D01*
X146709281Y-100570413D01*
X146572521Y-100479033D01*
X146420560Y-100416089D01*
X146259240Y-100384000D01*
X146094760Y-100384000D01*
X145933440Y-100416089D01*
X145829843Y-100459000D01*
X144572835Y-100459000D01*
X144623706Y-100397014D01*
X144761599Y-100139034D01*
X144846513Y-99859111D01*
X144875185Y-99568000D01*
X144846513Y-99276889D01*
X144761599Y-98996966D01*
X144623706Y-98738986D01*
X144438134Y-98512866D01*
X144212014Y-98327294D01*
X143954034Y-98189401D01*
X143674111Y-98104487D01*
X143455950Y-98083000D01*
X143310050Y-98083000D01*
X143254000Y-98088520D01*
X143254000Y-97664479D01*
X143255999Y-97664676D01*
X143293322Y-97661000D01*
X143560843Y-97661000D01*
X143664440Y-97703911D01*
X143825760Y-97736000D01*
X143990240Y-97736000D01*
X144151560Y-97703911D01*
X144303521Y-97640967D01*
X144440281Y-97549587D01*
X144556587Y-97433281D01*
X144647967Y-97296521D01*
X144710911Y-97144560D01*
X144743000Y-96983240D01*
X144743000Y-96818760D01*
X144710911Y-96657440D01*
X144647967Y-96505479D01*
X144556587Y-96368719D01*
X144440281Y-96252413D01*
X144303521Y-96161033D01*
X144151560Y-96098089D01*
X143990240Y-96066000D01*
X143825760Y-96066000D01*
X143762000Y-96078683D01*
X143762000Y-94271333D01*
X143765677Y-94234000D01*
X143751003Y-94085014D01*
X143707546Y-93941753D01*
X143636974Y-93809724D01*
X143565799Y-93722997D01*
X143542001Y-93693999D01*
X143513004Y-93670202D01*
X142111000Y-92268199D01*
X142111000Y-92041157D01*
X142153911Y-91937560D01*
X142186000Y-91776240D01*
X142186000Y-91611760D01*
X142153911Y-91450440D01*
X142090967Y-91298479D01*
X141999587Y-91161719D01*
X141883281Y-91045413D01*
X141746521Y-90954033D01*
X141594560Y-90891089D01*
X141433240Y-90859000D01*
X141268760Y-90859000D01*
X141107440Y-90891089D01*
X140992768Y-90938587D01*
X140992768Y-84517090D01*
X140996444Y-84479767D01*
X140992768Y-84442444D01*
X140992768Y-84442435D01*
X140981771Y-84330782D01*
X140938314Y-84187521D01*
X140893293Y-84103294D01*
X140867742Y-84055491D01*
X140850925Y-84035000D01*
X140970002Y-84035000D01*
X140970002Y-83870156D01*
X141199890Y-83991476D01*
X141347099Y-83946825D01*
X141609920Y-83821641D01*
X141843269Y-83647588D01*
X142038178Y-83431355D01*
X142107799Y-83314477D01*
X142142294Y-83379014D01*
X142327866Y-83605134D01*
X142553986Y-83790706D01*
X142811966Y-83928599D01*
X143091889Y-84013513D01*
X143310050Y-84035000D01*
X143455950Y-84035000D01*
X143674111Y-84013513D01*
X143954034Y-83928599D01*
X144212014Y-83790706D01*
X144438134Y-83605134D01*
X144623706Y-83379014D01*
X144653000Y-83324209D01*
X144682294Y-83379014D01*
X144867866Y-83605134D01*
X145093986Y-83790706D01*
X145351966Y-83928599D01*
X145631889Y-84013513D01*
X145850050Y-84035000D01*
X145995950Y-84035000D01*
X146214111Y-84013513D01*
X146494034Y-83928599D01*
X146752014Y-83790706D01*
X146978134Y-83605134D01*
X147163706Y-83379014D01*
X147301599Y-83121034D01*
X147386513Y-82841111D01*
X147415185Y-82550000D01*
X147386513Y-82258889D01*
X147320114Y-82040000D01*
X149451428Y-82040000D01*
X149451428Y-83654000D01*
X149463688Y-83778482D01*
X149499998Y-83898180D01*
X149558963Y-84008494D01*
X149638315Y-84105185D01*
X149735006Y-84184537D01*
X149845320Y-84243502D01*
X149914187Y-84264393D01*
X149884366Y-84288866D01*
X149698794Y-84514986D01*
X149560901Y-84772966D01*
X149475987Y-85052889D01*
X149447315Y-85344000D01*
X149475987Y-85635111D01*
X149560901Y-85915034D01*
X149698794Y-86173014D01*
X149884366Y-86399134D01*
X150110486Y-86584706D01*
X150165291Y-86614000D01*
X150110486Y-86643294D01*
X149884366Y-86828866D01*
X149698794Y-87054986D01*
X149560901Y-87312966D01*
X149475987Y-87592889D01*
X149447315Y-87884000D01*
X149475987Y-88175111D01*
X149560901Y-88455034D01*
X149698794Y-88713014D01*
X149884366Y-88939134D01*
X150110486Y-89124706D01*
X150165291Y-89154000D01*
X150110486Y-89183294D01*
X149884366Y-89368866D01*
X149698794Y-89594986D01*
X149560901Y-89852966D01*
X149475987Y-90132889D01*
X149447315Y-90424000D01*
X149475987Y-90715111D01*
X149560901Y-90995034D01*
X149698794Y-91253014D01*
X149884366Y-91479134D01*
X150110486Y-91664706D01*
X150165291Y-91694000D01*
X150110486Y-91723294D01*
X149884366Y-91908866D01*
X149698794Y-92134986D01*
X149560901Y-92392966D01*
X149475987Y-92672889D01*
X149447315Y-92964000D01*
X149475987Y-93255111D01*
X149560901Y-93535034D01*
X149698794Y-93793014D01*
X149884366Y-94019134D01*
X150110486Y-94204706D01*
X150165291Y-94234000D01*
X150110486Y-94263294D01*
X149884366Y-94448866D01*
X149698794Y-94674986D01*
X149560901Y-94932966D01*
X149475987Y-95212889D01*
X149447315Y-95504000D01*
X149475987Y-95795111D01*
X149560901Y-96075034D01*
X149698794Y-96333014D01*
X149884366Y-96559134D01*
X150110486Y-96744706D01*
X150165291Y-96774000D01*
X150110486Y-96803294D01*
X149884366Y-96988866D01*
X149698794Y-97214986D01*
X149560901Y-97472966D01*
X149475987Y-97752889D01*
X149447315Y-98044000D01*
X149475987Y-98335111D01*
X149560901Y-98615034D01*
X149698794Y-98873014D01*
X149884366Y-99099134D01*
X150110486Y-99284706D01*
X150165291Y-99314000D01*
X150110486Y-99343294D01*
X149884366Y-99528866D01*
X149698794Y-99754986D01*
X149560901Y-100012966D01*
X149475987Y-100292889D01*
X149447315Y-100584000D01*
X149475987Y-100875111D01*
X149560901Y-101155034D01*
X149698794Y-101413014D01*
X149884366Y-101639134D01*
X150110486Y-101824706D01*
X150165291Y-101854000D01*
X150110486Y-101883294D01*
X149884366Y-102068866D01*
X149698794Y-102294986D01*
X149560901Y-102552966D01*
X149475987Y-102832889D01*
X149447315Y-103124000D01*
X149475987Y-103415111D01*
X149560901Y-103695034D01*
X149698794Y-103953014D01*
X149884366Y-104179134D01*
X150110486Y-104364706D01*
X150165291Y-104394000D01*
X150110486Y-104423294D01*
X149884366Y-104608866D01*
X149698794Y-104834986D01*
X149560901Y-105092966D01*
X149475987Y-105372889D01*
X149447315Y-105664000D01*
X149475987Y-105955111D01*
X149560901Y-106235034D01*
X149698794Y-106493014D01*
X149884366Y-106719134D01*
X150110486Y-106904706D01*
X150368466Y-107042599D01*
X150597250Y-107112000D01*
X133501750Y-107112000D01*
X133730534Y-107042599D01*
X133988514Y-106904706D01*
X134214634Y-106719134D01*
X134400206Y-106493014D01*
X134538099Y-106235034D01*
X134623013Y-105955111D01*
X134651685Y-105664000D01*
X134623013Y-105372889D01*
X134538099Y-105092966D01*
X134400206Y-104834986D01*
X134214634Y-104608866D01*
X133988514Y-104423294D01*
X133933709Y-104394000D01*
X133988514Y-104364706D01*
X134214634Y-104179134D01*
X134400206Y-103953014D01*
X134538099Y-103695034D01*
X134623013Y-103415111D01*
X134651685Y-103124000D01*
X134623013Y-102832889D01*
X134538099Y-102552966D01*
X134400206Y-102294986D01*
X134214634Y-102068866D01*
X133988514Y-101883294D01*
X133933709Y-101854000D01*
X133988514Y-101824706D01*
X134214634Y-101639134D01*
X134400206Y-101413014D01*
X134538099Y-101155034D01*
X134623013Y-100875111D01*
X134651685Y-100584000D01*
X134623013Y-100292889D01*
X134538099Y-100012966D01*
X134400206Y-99754986D01*
X134214634Y-99528866D01*
X133988514Y-99343294D01*
X133923977Y-99308799D01*
X134040855Y-99239178D01*
X134257088Y-99044269D01*
X134431141Y-98810920D01*
X134556325Y-98548099D01*
X134600976Y-98400890D01*
X134479655Y-98171000D01*
X133286500Y-98171000D01*
X133286500Y-98191000D01*
X133032500Y-98191000D01*
X133032500Y-98171000D01*
X133012500Y-98171000D01*
X133012500Y-97917000D01*
X133032500Y-97917000D01*
X133032500Y-97897000D01*
X133286500Y-97897000D01*
X133286500Y-97917000D01*
X134479655Y-97917000D01*
X134600976Y-97687110D01*
X134556325Y-97539901D01*
X134431141Y-97277080D01*
X134257088Y-97043731D01*
X134040855Y-96848822D01*
X133923977Y-96779201D01*
X133988514Y-96744706D01*
X134214634Y-96559134D01*
X134400206Y-96333014D01*
X134538099Y-96075034D01*
X134623013Y-95795111D01*
X134651685Y-95504000D01*
X134623013Y-95212889D01*
X134538099Y-94932966D01*
X134400206Y-94674986D01*
X134214634Y-94448866D01*
X133988514Y-94263294D01*
X133933709Y-94234000D01*
X133988514Y-94204706D01*
X134214634Y-94019134D01*
X134400206Y-93793014D01*
X134538099Y-93535034D01*
X134623013Y-93255111D01*
X134651685Y-92964000D01*
X134623013Y-92672889D01*
X134538099Y-92392966D01*
X134400206Y-92134986D01*
X134214634Y-91908866D01*
X133988514Y-91723294D01*
X133933709Y-91694000D01*
X133988514Y-91664706D01*
X134214634Y-91479134D01*
X134400206Y-91253014D01*
X134538099Y-90995034D01*
X134623013Y-90715111D01*
X134651685Y-90424000D01*
X134623013Y-90132889D01*
X134538099Y-89852966D01*
X134400206Y-89594986D01*
X134214634Y-89368866D01*
X133988514Y-89183294D01*
X133933709Y-89154000D01*
X133988514Y-89124706D01*
X134214634Y-88939134D01*
X134400206Y-88713014D01*
X134538099Y-88455034D01*
X134623013Y-88175111D01*
X134651685Y-87884000D01*
X134623013Y-87592889D01*
X134538099Y-87312966D01*
X134400206Y-87054986D01*
X134214634Y-86828866D01*
X133988514Y-86643294D01*
X133933709Y-86614000D01*
X133988514Y-86584706D01*
X134214634Y-86399134D01*
X134400206Y-86173014D01*
X134538099Y-85915034D01*
X134623013Y-85635111D01*
X134651685Y-85344000D01*
X134623013Y-85052889D01*
X134538099Y-84772966D01*
X134400206Y-84514986D01*
X134214634Y-84288866D01*
X134184813Y-84264393D01*
X134253680Y-84243502D01*
X134363994Y-84184537D01*
X134460685Y-84105185D01*
X134540037Y-84008494D01*
X134599002Y-83898180D01*
X134635312Y-83778482D01*
X134647572Y-83654000D01*
X134647572Y-81954000D01*
X134635312Y-81829518D01*
X134599002Y-81709820D01*
X134540037Y-81599506D01*
X134460685Y-81502815D01*
X134374396Y-81432000D01*
X136876230Y-81432000D01*
X136863498Y-81455820D01*
X136863498Y-81455820D01*
G37*
X136863498Y-81455820D02*
X136827188Y-81575518D01*
X136814928Y-81700000D01*
X136814928Y-83400000D01*
X136827188Y-83524482D01*
X136863498Y-83644180D01*
X136922463Y-83754494D01*
X137001815Y-83851185D01*
X137098506Y-83930537D01*
X137208820Y-83989502D01*
X137328518Y-84025812D01*
X137453000Y-84038072D01*
X138716271Y-84038072D01*
X139472769Y-84794571D01*
X139472768Y-92514611D01*
X139429857Y-92618208D01*
X139397768Y-92779528D01*
X139397768Y-92944008D01*
X139429857Y-93105328D01*
X139492801Y-93257289D01*
X139584181Y-93394049D01*
X139700487Y-93510355D01*
X139837247Y-93601735D01*
X139940846Y-93644647D01*
X141283990Y-94987792D01*
X141283989Y-98079928D01*
X139993000Y-98079928D01*
X139868518Y-98092188D01*
X139748820Y-98128498D01*
X139638506Y-98187463D01*
X139541815Y-98266815D01*
X139462463Y-98363506D01*
X139403498Y-98473820D01*
X139367188Y-98593518D01*
X139354928Y-98718000D01*
X139354928Y-100418000D01*
X139367188Y-100542482D01*
X139403498Y-100662180D01*
X139462463Y-100772494D01*
X139541815Y-100869185D01*
X139638506Y-100948537D01*
X139748820Y-101007502D01*
X139868518Y-101043812D01*
X139993000Y-101056072D01*
X141693000Y-101056072D01*
X141817482Y-101043812D01*
X141937180Y-101007502D01*
X141983787Y-100982590D01*
X142731199Y-101730003D01*
X142754997Y-101759001D01*
X142783995Y-101782799D01*
X142870721Y-101853974D01*
X143002751Y-101924546D01*
X143146012Y-101968003D01*
X143257665Y-101979000D01*
X143257675Y-101979000D01*
X143294998Y-101982676D01*
X143332321Y-101979000D01*
X145829843Y-101979000D01*
X145933440Y-102021911D01*
X146094760Y-102054000D01*
X146259240Y-102054000D01*
X146420560Y-102021911D01*
X146572521Y-101958967D01*
X146709281Y-101867587D01*
X146825587Y-101751281D01*
X146916967Y-101614521D01*
X146979911Y-101462560D01*
X147012000Y-101301240D01*
X147012000Y-101136760D01*
X146979911Y-100975440D01*
X146916967Y-100823479D01*
X146825587Y-100686719D01*
X146709281Y-100570413D01*
X146572521Y-100479033D01*
X146420560Y-100416089D01*
X146259240Y-100384000D01*
X146094760Y-100384000D01*
X145933440Y-100416089D01*
X145829843Y-100459000D01*
X144572835Y-100459000D01*
X144623706Y-100397014D01*
X144761599Y-100139034D01*
X144846513Y-99859111D01*
X144875185Y-99568000D01*
X144846513Y-99276889D01*
X144761599Y-98996966D01*
X144623706Y-98738986D01*
X144438134Y-98512866D01*
X144212014Y-98327294D01*
X143954034Y-98189401D01*
X143674111Y-98104487D01*
X143455950Y-98083000D01*
X143310050Y-98083000D01*
X143254000Y-98088520D01*
X143254000Y-97664479D01*
X143255999Y-97664676D01*
X143293322Y-97661000D01*
X143560843Y-97661000D01*
X143664440Y-97703911D01*
X143825760Y-97736000D01*
X143990240Y-97736000D01*
X144151560Y-97703911D01*
X144303521Y-97640967D01*
X144440281Y-97549587D01*
X144556587Y-97433281D01*
X144647967Y-97296521D01*
X144710911Y-97144560D01*
X144743000Y-96983240D01*
X144743000Y-96818760D01*
X144710911Y-96657440D01*
X144647967Y-96505479D01*
X144556587Y-96368719D01*
X144440281Y-96252413D01*
X144303521Y-96161033D01*
X144151560Y-96098089D01*
X143990240Y-96066000D01*
X143825760Y-96066000D01*
X143762000Y-96078683D01*
X143762000Y-94271333D01*
X143765677Y-94234000D01*
X143751003Y-94085014D01*
X143707546Y-93941753D01*
X143636974Y-93809724D01*
X143565799Y-93722997D01*
X143542001Y-93693999D01*
X143513004Y-93670202D01*
X142111000Y-92268199D01*
X142111000Y-92041157D01*
X142153911Y-91937560D01*
X142186000Y-91776240D01*
X142186000Y-91611760D01*
X142153911Y-91450440D01*
X142090967Y-91298479D01*
X141999587Y-91161719D01*
X141883281Y-91045413D01*
X141746521Y-90954033D01*
X141594560Y-90891089D01*
X141433240Y-90859000D01*
X141268760Y-90859000D01*
X141107440Y-90891089D01*
X140992768Y-90938587D01*
X140992768Y-84517090D01*
X140996444Y-84479767D01*
X140992768Y-84442444D01*
X140992768Y-84442435D01*
X140981771Y-84330782D01*
X140938314Y-84187521D01*
X140893293Y-84103294D01*
X140867742Y-84055491D01*
X140850925Y-84035000D01*
X140970002Y-84035000D01*
X140970002Y-83870156D01*
X141199890Y-83991476D01*
X141347099Y-83946825D01*
X141609920Y-83821641D01*
X141843269Y-83647588D01*
X142038178Y-83431355D01*
X142107799Y-83314477D01*
X142142294Y-83379014D01*
X142327866Y-83605134D01*
X142553986Y-83790706D01*
X142811966Y-83928599D01*
X143091889Y-84013513D01*
X143310050Y-84035000D01*
X143455950Y-84035000D01*
X143674111Y-84013513D01*
X143954034Y-83928599D01*
X144212014Y-83790706D01*
X144438134Y-83605134D01*
X144623706Y-83379014D01*
X144653000Y-83324209D01*
X144682294Y-83379014D01*
X144867866Y-83605134D01*
X145093986Y-83790706D01*
X145351966Y-83928599D01*
X145631889Y-84013513D01*
X145850050Y-84035000D01*
X145995950Y-84035000D01*
X146214111Y-84013513D01*
X146494034Y-83928599D01*
X146752014Y-83790706D01*
X146978134Y-83605134D01*
X147163706Y-83379014D01*
X147301599Y-83121034D01*
X147386513Y-82841111D01*
X147415185Y-82550000D01*
X147386513Y-82258889D01*
X147320114Y-82040000D01*
X149451428Y-82040000D01*
X149451428Y-83654000D01*
X149463688Y-83778482D01*
X149499998Y-83898180D01*
X149558963Y-84008494D01*
X149638315Y-84105185D01*
X149735006Y-84184537D01*
X149845320Y-84243502D01*
X149914187Y-84264393D01*
X149884366Y-84288866D01*
X149698794Y-84514986D01*
X149560901Y-84772966D01*
X149475987Y-85052889D01*
X149447315Y-85344000D01*
X149475987Y-85635111D01*
X149560901Y-85915034D01*
X149698794Y-86173014D01*
X149884366Y-86399134D01*
X150110486Y-86584706D01*
X150165291Y-86614000D01*
X150110486Y-86643294D01*
X149884366Y-86828866D01*
X149698794Y-87054986D01*
X149560901Y-87312966D01*
X149475987Y-87592889D01*
X149447315Y-87884000D01*
X149475987Y-88175111D01*
X149560901Y-88455034D01*
X149698794Y-88713014D01*
X149884366Y-88939134D01*
X150110486Y-89124706D01*
X150165291Y-89154000D01*
X150110486Y-89183294D01*
X149884366Y-89368866D01*
X149698794Y-89594986D01*
X149560901Y-89852966D01*
X149475987Y-90132889D01*
X149447315Y-90424000D01*
X149475987Y-90715111D01*
X149560901Y-90995034D01*
X149698794Y-91253014D01*
X149884366Y-91479134D01*
X150110486Y-91664706D01*
X150165291Y-91694000D01*
X150110486Y-91723294D01*
X149884366Y-91908866D01*
X149698794Y-92134986D01*
X149560901Y-92392966D01*
X149475987Y-92672889D01*
X149447315Y-92964000D01*
X149475987Y-93255111D01*
X149560901Y-93535034D01*
X149698794Y-93793014D01*
X149884366Y-94019134D01*
X150110486Y-94204706D01*
X150165291Y-94234000D01*
X150110486Y-94263294D01*
X149884366Y-94448866D01*
X149698794Y-94674986D01*
X149560901Y-94932966D01*
X149475987Y-95212889D01*
X149447315Y-95504000D01*
X149475987Y-95795111D01*
X149560901Y-96075034D01*
X149698794Y-96333014D01*
X149884366Y-96559134D01*
X150110486Y-96744706D01*
X150165291Y-96774000D01*
X150110486Y-96803294D01*
X149884366Y-96988866D01*
X149698794Y-97214986D01*
X149560901Y-97472966D01*
X149475987Y-97752889D01*
X149447315Y-98044000D01*
X149475987Y-98335111D01*
X149560901Y-98615034D01*
X149698794Y-98873014D01*
X149884366Y-99099134D01*
X150110486Y-99284706D01*
X150165291Y-99314000D01*
X150110486Y-99343294D01*
X149884366Y-99528866D01*
X149698794Y-99754986D01*
X149560901Y-100012966D01*
X149475987Y-100292889D01*
X149447315Y-100584000D01*
X149475987Y-100875111D01*
X149560901Y-101155034D01*
X149698794Y-101413014D01*
X149884366Y-101639134D01*
X150110486Y-101824706D01*
X150165291Y-101854000D01*
X150110486Y-101883294D01*
X149884366Y-102068866D01*
X149698794Y-102294986D01*
X149560901Y-102552966D01*
X149475987Y-102832889D01*
X149447315Y-103124000D01*
X149475987Y-103415111D01*
X149560901Y-103695034D01*
X149698794Y-103953014D01*
X149884366Y-104179134D01*
X150110486Y-104364706D01*
X150165291Y-104394000D01*
X150110486Y-104423294D01*
X149884366Y-104608866D01*
X149698794Y-104834986D01*
X149560901Y-105092966D01*
X149475987Y-105372889D01*
X149447315Y-105664000D01*
X149475987Y-105955111D01*
X149560901Y-106235034D01*
X149698794Y-106493014D01*
X149884366Y-106719134D01*
X150110486Y-106904706D01*
X150368466Y-107042599D01*
X150597250Y-107112000D01*
X133501750Y-107112000D01*
X133730534Y-107042599D01*
X133988514Y-106904706D01*
X134214634Y-106719134D01*
X134400206Y-106493014D01*
X134538099Y-106235034D01*
X134623013Y-105955111D01*
X134651685Y-105664000D01*
X134623013Y-105372889D01*
X134538099Y-105092966D01*
X134400206Y-104834986D01*
X134214634Y-104608866D01*
X133988514Y-104423294D01*
X133933709Y-104394000D01*
X133988514Y-104364706D01*
X134214634Y-104179134D01*
X134400206Y-103953014D01*
X134538099Y-103695034D01*
X134623013Y-103415111D01*
X134651685Y-103124000D01*
X134623013Y-102832889D01*
X134538099Y-102552966D01*
X134400206Y-102294986D01*
X134214634Y-102068866D01*
X133988514Y-101883294D01*
X133933709Y-101854000D01*
X133988514Y-101824706D01*
X134214634Y-101639134D01*
X134400206Y-101413014D01*
X134538099Y-101155034D01*
X134623013Y-100875111D01*
X134651685Y-100584000D01*
X134623013Y-100292889D01*
X134538099Y-100012966D01*
X134400206Y-99754986D01*
X134214634Y-99528866D01*
X133988514Y-99343294D01*
X133923977Y-99308799D01*
X134040855Y-99239178D01*
X134257088Y-99044269D01*
X134431141Y-98810920D01*
X134556325Y-98548099D01*
X134600976Y-98400890D01*
X134479655Y-98171000D01*
X133286500Y-98171000D01*
X133286500Y-98191000D01*
X133032500Y-98191000D01*
X133032500Y-98171000D01*
X133012500Y-98171000D01*
X133012500Y-97917000D01*
X133032500Y-97917000D01*
X133032500Y-97897000D01*
X133286500Y-97897000D01*
X133286500Y-97917000D01*
X134479655Y-97917000D01*
X134600976Y-97687110D01*
X134556325Y-97539901D01*
X134431141Y-97277080D01*
X134257088Y-97043731D01*
X134040855Y-96848822D01*
X133923977Y-96779201D01*
X133988514Y-96744706D01*
X134214634Y-96559134D01*
X134400206Y-96333014D01*
X134538099Y-96075034D01*
X134623013Y-95795111D01*
X134651685Y-95504000D01*
X134623013Y-95212889D01*
X134538099Y-94932966D01*
X134400206Y-94674986D01*
X134214634Y-94448866D01*
X133988514Y-94263294D01*
X133933709Y-94234000D01*
X133988514Y-94204706D01*
X134214634Y-94019134D01*
X134400206Y-93793014D01*
X134538099Y-93535034D01*
X134623013Y-93255111D01*
X134651685Y-92964000D01*
X134623013Y-92672889D01*
X134538099Y-92392966D01*
X134400206Y-92134986D01*
X134214634Y-91908866D01*
X133988514Y-91723294D01*
X133933709Y-91694000D01*
X133988514Y-91664706D01*
X134214634Y-91479134D01*
X134400206Y-91253014D01*
X134538099Y-90995034D01*
X134623013Y-90715111D01*
X134651685Y-90424000D01*
X134623013Y-90132889D01*
X134538099Y-89852966D01*
X134400206Y-89594986D01*
X134214634Y-89368866D01*
X133988514Y-89183294D01*
X133933709Y-89154000D01*
X133988514Y-89124706D01*
X134214634Y-88939134D01*
X134400206Y-88713014D01*
X134538099Y-88455034D01*
X134623013Y-88175111D01*
X134651685Y-87884000D01*
X134623013Y-87592889D01*
X134538099Y-87312966D01*
X134400206Y-87054986D01*
X134214634Y-86828866D01*
X133988514Y-86643294D01*
X133933709Y-86614000D01*
X133988514Y-86584706D01*
X134214634Y-86399134D01*
X134400206Y-86173014D01*
X134538099Y-85915034D01*
X134623013Y-85635111D01*
X134651685Y-85344000D01*
X134623013Y-85052889D01*
X134538099Y-84772966D01*
X134400206Y-84514986D01*
X134214634Y-84288866D01*
X134184813Y-84264393D01*
X134253680Y-84243502D01*
X134363994Y-84184537D01*
X134460685Y-84105185D01*
X134540037Y-84008494D01*
X134599002Y-83898180D01*
X134635312Y-83778482D01*
X134647572Y-83654000D01*
X134647572Y-81954000D01*
X134635312Y-81829518D01*
X134599002Y-81709820D01*
X134540037Y-81599506D01*
X134460685Y-81502815D01*
X134374396Y-81432000D01*
X136876230Y-81432000D01*
X136863498Y-81455820D01*
G36*
X140970000Y-82423000D02*
G01*
X140990000Y-82423000D01*
X140990000Y-82677000D01*
X140970000Y-82677000D01*
X140970000Y-82697000D01*
X140716000Y-82697000D01*
X140716000Y-82677000D01*
X140696000Y-82677000D01*
X140696000Y-82423000D01*
X140716000Y-82423000D01*
X140716000Y-82403000D01*
X140970000Y-82403000D01*
X140970000Y-82423000D01*
X140970000Y-82423000D01*
G37*
X140970000Y-82423000D02*
X140990000Y-82423000D01*
X140990000Y-82677000D01*
X140970000Y-82677000D01*
X140970000Y-82697000D01*
X140716000Y-82697000D01*
X140716000Y-82677000D01*
X140696000Y-82677000D01*
X140696000Y-82423000D01*
X140716000Y-82423000D01*
X140716000Y-82403000D01*
X140970000Y-82403000D01*
X140970000Y-82423000D01*
M02*
